HIERARCHY
ROOT hip
{
	OFFSET 0.000000 0.000000 0.000000 
	CHANNELS 6 Xposition Yposition Zposition Xrotation Zrotation Yrotation
	JOINT abdomen
	{
		OFFSET 0.000000 3.402643 0.000000 
		CHANNELS 3 Xrotation Zrotation Yrotation
		JOINT chest
		{
			OFFSET 0.000000 8.438565 -0.680529 
			CHANNELS 3 Xrotation Zrotation Yrotation
			JOINT neck
			{
				OFFSET 0.000000 10.207942 -0.272212 
				CHANNELS 3 Xrotation Zrotation Yrotation
				JOINT head
				{
					OFFSET 0.000000 3.130431 0.000000 
					CHANNELS 3 Xrotation Zrotation Yrotation
					End Site
					{
						OFFSET 0.000000 3.130435 0.000000 
					}
				}
			}
			JOINT lCollar
			{
				OFFSET 3.470700 6.669187 -0.816635 
				CHANNELS 3 Yrotation Zrotation Xrotation
				JOINT lShldr
				{
					OFFSET 3.198488 0.000000 0.000000 
					CHANNELS 3 Zrotation Yrotation Xrotation
					JOINT lForeArm
					{
						OFFSET 10.139888 0.000000 0.000000 
						CHANNELS 3 Yrotation Zrotation Xrotation
						JOINT lHand
						{
							OFFSET 8.370511 0.000000 0.000000 
							CHANNELS 3 Zrotation Yrotation Xrotation
							End Site
							{
								OFFSET 4.083176 0.000000 0.000000 
							}
						}
					}
				}
			}
			JOINT rCollar
			{
				OFFSET -3.470700 6.669187 -0.816635 
				CHANNELS 3 Yrotation Zrotation Xrotation
				JOINT rShldr
				{
					OFFSET -3.198488 0.000000 0.000000 
					CHANNELS 3 Zrotation Yrotation Xrotation
					JOINT rForeArm
					{
						OFFSET -10.139888 0.000000 0.000000 
						CHANNELS 3 Yrotation Zrotation Xrotation
						JOINT rHand
						{
							OFFSET -8.370511 0.000000 0.000000 
							CHANNELS 3 Zrotation Yrotation Xrotation
							End Site
							{
								OFFSET -4.083176 0.000000 0.000000 
							}
						}
					}
				}
			}
		}
	}
	JOINT lThigh
	{
		OFFSET 5.308129 -1.633274 1.361059 
		CHANNELS 3 Xrotation Zrotation Yrotation
		JOINT lShin
		{
			OFFSET -2.041588 -20.007561 0.000000 
			CHANNELS 3 Xrotation Zrotation Yrotation
			JOINT lFoot
			{
				OFFSET 0.000000 -19.190928 -1.224953 
				CHANNELS 3 Xrotation Yrotation Zrotation
				End Site
				{
					OFFSET 0.000000 -2.449906 4.627600 
				}
			}
		}
	}
	JOINT rThigh
	{
		OFFSET -5.308129 -1.633274 1.361059 
		CHANNELS 3 Xrotation Zrotation Yrotation
		JOINT rShin
		{
			OFFSET 2.041588 -20.007561 0.000000 
			CHANNELS 3 Xrotation Zrotation Yrotation
			JOINT rFoot
			{
				OFFSET 0.000000 -19.190928 -1.224953 
				CHANNELS 3 Xrotation Yrotation Zrotation
				End Site
				{
					OFFSET 0.000000 -2.449906 4.627600 
				}
			}
		}
	}
}
MOTION
Frames: 6
Frame Time: 0.033333
-9.812703 40.984852 -67.316101 -1.767578 -8.095703 63.808598 24.433596 2.539063 7.685979 -9.228516 -0.332031 5.996037 -16.650391 -1.835938 -31.767578 4.462891 6.777344 -32.039860 8.720703 5.800781 0.146484 -60.878910 -35.302738 -30.341797 -129.277344 -3.154297 -42.372505 21.601563 -8.076172 -3.018950 -6.328125 -1.513672 0.000258 93.857422 60.410156 65.244141 88.642578 0.830078 12.158203 -4.414062 20.146484 -1.129448 -29.314653 36.401463 17.801163 59.628643 0.240109 -3.696513 -26.443377 -13.220289 -13.834419 -44.998566 -27.595984 -20.590021 60.519173 -1.054354 3.302877 -7.208542 -1.752789 6.718132 
-10.005559 40.805962 -67.221710 -1.767578 -8.798827 63.427731 24.951172 1.953125 8.623381 -9.218750 -0.859375 6.874854 -18.349609 -2.373047 -32.461346 5.341796 7.138672 -32.509766 8.906250 5.107422 0.234375 -60.917965 -30.253906 -32.241253 -126.904297 -3.310547 -45.244141 20.947266 -8.759766 -3.173828 -6.328125 -2.031250 -0.058594 99.023438 62.060547 72.763672 85.195313 0.722656 13.027221 -3.994141 19.453127 -0.885418 -30.710962 37.456154 17.698374 60.362125 0.258220 -3.411401 -26.261784 -13.671529 -14.503246 -46.219795 -28.094492 -22.871990 62.627064 -1.053783 3.383368 -9.417436 -5.012987 5.959646 
-10.218438 40.615086 -66.991028 -1.582031 -9.501953 62.898781 25.468750 1.240234 9.355680 -9.042969 -0.859375 7.919922 -20.419922 -3.437500 -32.793552 6.230469 7.490234 -32.968750 9.101563 4.218750 0.184828 -61.064453 -25.292967 -33.011982 -123.242188 -3.398438 -46.796295 20.302736 -9.443359 -3.321915 -6.679688 -2.929688 0.000000 105.595703 63.300781 81.474609 81.083984 0.644531 13.056641 -2.041016 19.130859 -0.224609 -31.640253 38.602219 17.890455 61.059158 0.269433 -3.582731 -25.849714 -14.254182 -14.213458 -47.095455 -28.792397 -25.482828 64.567619 -0.898474 3.369270 -11.675380 -9.579054 4.426651 
-10.434108 40.411282 -66.612755 -1.054688 -10.205078 62.363289 25.976563 0.361328 10.048818 -8.691406 -1.025391 8.789063 -22.666018 -4.316407 -33.320313 7.285156 7.675781 -33.251949 9.287109 3.496094 0.116592 -61.679688 -21.152344 -33.583984 -118.681641 -3.476563 -49.989643 18.925781 -10.224609 -3.263453 -7.353516 -4.189453 0.156250 -65.332024 115.683594 -86.905258 76.269531 0.771484 12.324060 0.253906 18.769516 0.452361 -32.350388 39.874866 18.315815 61.227394 0.385388 -3.708607 -25.414026 -14.478997 -14.468571 -48.453609 -29.593887 -27.203104 66.679520 -1.074239 3.191713 -12.540674 -12.547426 3.808867 
-10.618003 40.195381 -66.082024 -0.175781 -11.083985 61.689449 26.152346 -0.615234 10.361223 -8.691406 -1.025391 9.492188 -24.228516 -5.380859 -33.487244 7.998046 7.851562 -33.554684 9.121094 2.773438 0.068359 -62.080082 -16.591797 -33.408203 -113.515625 -3.369141 -53.095703 18.701172 -11.542970 -3.615236 -7.695312 -5.781250 0.098640 -56.503910 115.693367 -75.361328 71.250000 0.810547 11.650391 1.591797 17.685547 0.920937 -32.646366 40.780594 19.074846 60.866241 0.414122 -3.675909 -24.918772 -15.292188 -14.475332 -50.234135 -30.497644 -28.616951 68.618416 -1.083256 3.080566 -12.439689 -13.241194 3.660401 
-10.775713 39.974121 -65.412315 0.869141 -11.787108 60.644531 26.142578 -1.591797 10.683593 -9.560546 -1.738281 10.048533 -24.726564 -5.205078 -33.837891 7.998046 7.851562 -33.730465 8.417968 3.291016 0.019531 -62.548832 -11.865234 -32.812504 -107.734375 -3.369141 -56.591797 18.906250 -13.144530 -4.152610 -7.138672 -7.031250 0.176977 -50.175781 117.080086 -66.865234 66.201172 0.859375 10.849608 3.837891 16.552734 1.535987 -32.331703 41.564705 20.266109 60.186863 0.258361 -3.393490 -24.581684 -15.181327 -14.334718 -51.833950 -31.246210 -30.289082 69.823318 -1.582040 3.316689 -11.288040 -13.940426 4.208543 
